<?xml version="1.0" encoding="UTF-8"?>
<svg width="195px" height="39px" viewBox="0 0 195 39" version="1.1" xmlns="http://www.w3.org/2000/svg" xmlns:xlink="http://www.w3.org/1999/xlink">
    <!-- Generator: Sketch 49.3 (51167) - http://www.bohemiancoding.com/sketch -->
    <title>facebook</title>
    <desc>Created with Sketch.</desc>
    <defs></defs>
    <g id="📖-About-page" stroke="none" stroke-width="1" fill="none" fill-rule="evenodd">
        <g id="About-Page---SG-Riff" transform="translate(-765.000000, -1152.000000)" fill="#014F9E" fill-rule="nonzero">
            <g id="facebook" transform="translate(765.000000, 1152.000000)">
                <g id="Group">
                    <path d="M18.5042553,0.24893617 L18.5042553,6.14042553 L15.2680851,6.14042553 C15.2680851,6.14042553 12.2808511,5.72553191 12.2808511,8.54680851 L12.2808511,13.2765957 L18.5042553,13.2765957 L17.7574468,19.6659574 L12.2808511,19.6659574 L12.2808511,37.5893617 L5.14468085,37.5893617 L5.14468085,19.5829787 L0.331914894,19.5829787 L0.331914894,13.2765957 L5.39361702,13.2765957 L5.39361702,7.88297872 C5.39361702,7.88297872 4.72978723,4.89574468 7.38510638,2.4893617 C10.0404255,0.0829787234 13.5255319,0.24893617 13.5255319,0.24893617 L18.5042553,0.24893617 M35.7638298,13.3595745 L35.7638298,16.5957447 C33.9382979,14.1893617 31.3659574,12.6957447 28.5446809,12.6957447 C22.9851064,12.6957447 18.5042553,17.5914894 18.5042553,25.5574468 C18.5042553,33.5234043 22.9851064,38.4191489 28.5446809,38.4191489 C31.3659574,38.4191489 34.0212766,36.9255319 35.8468085,34.4361702 L35.7638298,37.5893617 L42.6510638,37.5893617 L42.6510638,13.3595745 L35.7638298,13.3595745 M35.3489362,27.9638298 C35.3489362,30.3702128 33.2744681,32.693617 30.7021277,32.693617 C28.1297872,32.693617 26.0553191,30.3702128 26.0553191,27.9638298 L26.0553191,23.3170213 C26.0553191,20.9106383 28.1297872,18.587234 30.7021277,18.587234 C33.2744681,18.587234 35.3489362,20.9106383 35.3489362,23.3170213 L35.3489362,27.9638298 M99.0765957,37.7553191 L99.0765957,34.5191489 C100.902128,36.9255319 103.474468,38.4191489 106.295745,38.4191489 C111.855319,38.4191489 116.33617,33.5234043 116.33617,25.5574468 C116.33617,17.5914894 111.855319,12.6957447 106.295745,12.6957447 C103.474468,12.6957447 100.819149,14.1893617 98.993617,16.6787234 L99.0765957,0.663829787 L91.8574468,1.49361702 L91.8574468,37.6723404 L99.0765957,37.7553191 M99.4914894,23.1510638 C99.4914894,20.7446809 101.565957,18.4212766 104.138298,18.4212766 C106.710638,18.4212766 108.785106,20.7446809 108.785106,23.1510638 L108.785106,27.7978723 C108.785106,30.2042553 106.710638,32.5276596 104.138298,32.5276596 C101.565957,32.5276596 99.4914894,30.2042553 99.4914894,27.7978723 L99.4914894,23.1510638 M58.2510638,32.5276596 C58.2510638,32.5276596 52.6914894,32.8595745 52.6914894,25.6404255 L52.6914894,25.2255319 C52.6914894,18.0893617 58.2510638,18.3382979 58.2510638,18.3382979 C61.9851064,18.2553191 63.312766,19.5829787 63.312766,19.5829787 L65.0553191,14.3553191 C62.0680851,12.1148936 53.0234043,11.7829787 48.9574468,15.5170213 C45.4723404,18.7531915 45.4723404,23.9808511 45.4723404,25.3914894 C45.3893617,26.7191489 45.3893617,32.0297872 48.9574468,35.2659574 C53.0234043,39 62.0680851,38.6680851 65.0553191,36.4276596 L63.312766,31.2 C63.312766,31.2829787 61.9851064,32.6106383 58.2510638,32.5276596" id="Shape"></path>
                    <path d="M88.8702128,28.1297872 C88.8702128,28.1297872 91.7744681,12.9446809 77.9170213,12.8617021 C64.0595745,12.7787234 66.0510638,26.5531915 66.0510638,26.5531915 C66.3829787,34.9340426 70.2,37.3404255 76.8382979,38.1702128 C83.4765957,39 88.4553191,36.4276596 88.4553191,36.4276596 L86.9617021,31.5319149 C86.9617021,31.5319149 81.6510638,33.1914894 77.4191489,32.7765957 C73.187234,32.4446809 73.5191489,28.0468085 73.5191489,28.0468085 L88.8702128,28.0468085 L88.8702128,28.1297872 Z M73.3531915,23.2340426 C73.3531915,23.2340426 73.0212766,17.8404255 77.8340426,17.8404255 C82.6468085,17.8404255 82.3148936,23.2340426 82.3148936,23.2340426 L73.3531915,23.2340426 Z M130.691489,13.0276596 C121.646809,13.0276596 118.659574,18.5042553 118.659574,25.7234043 C118.659574,33.4404255 122.559574,38.4191489 130.691489,38.4191489 C137.329787,38.4191489 142.723404,33.9382979 142.723404,25.7234043 C142.723404,18.6702128 139.238298,13.0276596 130.691489,13.0276596 Z M135.338298,27.7978723 C135.338298,30.2042553 133.180851,32.5276596 130.608511,32.5276596 C127.953191,32.5276596 125.878723,30.2042553 125.878723,27.7978723 L125.878723,23.1510638 C125.878723,20.7446809 128.03617,18.4212766 130.608511,18.4212766 C133.26383,18.4212766 135.338298,20.7446809 135.338298,23.1510638 L135.338298,27.7978723 Z M157.32766,13.0276596 C148.282979,13.0276596 145.295745,18.5042553 145.295745,25.7234043 C145.295745,33.4404255 149.195745,38.4191489 157.32766,38.4191489 C163.965957,38.4191489 169.359574,33.9382979 169.359574,25.7234043 C169.359574,18.6702128 165.874468,13.0276596 157.32766,13.0276596 Z M161.974468,27.7978723 C161.974468,30.2042553 159.817021,32.5276596 157.244681,32.5276596 C154.589362,32.5276596 152.514894,30.2042553 152.514894,27.7978723 L152.514894,23.1510638 C152.514894,20.7446809 154.67234,18.4212766 157.244681,18.4212766 C159.9,18.4212766 161.974468,20.7446809 161.974468,23.1510638 L161.974468,27.7978723 Z M194.668085,37.6723404 L186.785106,25.4744681 L194.33617,13.2765957 L186.619149,13.2765957 L179.234043,24.2297872 L179.234043,0.49787234 L172.014894,1.24468085 L172.014894,37.6723404 L179.234043,37.6723404 L179.234043,25.3085106 L187.2,37.6723404 L194.668085,37.6723404 Z" id="Shape"></path>
                </g>
            </g>
        </g>
    </g>
</svg>