<?xml version="1.0" encoding="UTF-8"?>
<svg width="170px" height="83px" viewBox="0 0 170 83" version="1.1" xmlns="http://www.w3.org/2000/svg" xmlns:xlink="http://www.w3.org/1999/xlink">
    <!-- Generator: Sketch 49.3 (51167) - http://www.bohemiancoding.com/sketch -->
    <title>lonely-planet</title>
    <desc>Created with Sketch.</desc>
    <defs></defs>
    <g id="📖-About-page" stroke="none" stroke-width="1" fill="none" fill-rule="evenodd">
        <g id="About-Page---SG-Riff" transform="translate(-194.000000, -1130.000000)" fill="#2A3E92">
            <g id="lonely-planet" transform="translate(194.000000, 1130.000000)">
                <path d="M51.9241611,41.7103425 C50.640604,37.8741507 45.5075168,37.8741507 44.3677181,41.7103425 L51.9241611,41.7103425 Z M77.8736913,53.2189178 L77.8736913,33.4683288 L71.8848993,33.4683288 L71.8848993,44.6937945 C71.8848993,46.8256438 68.8910738,46.8256438 68.8910738,44.6937945 L68.8910738,33.4683288 L62.9034228,33.4683288 L62.9034228,26.0801918 L56.7720134,26.0801918 L56.7720134,39.2942466 C54.9179866,35.0316849 51.0673154,32.8998356 46.5058389,33.611589 C43.0830201,34.3222055 40.8022819,36.1686712 39.5187248,39.2942466 C38.3777852,35.5990411 35.6691946,33.611589 31.8196644,33.4683288 C27.8275168,33.4683288 24.6899329,35.3159315 23.5501342,39.2942466 C21.5534899,34.7474384 17.4187248,32.615589 12.5708725,33.7537123 C9.71852349,34.6053151 7.86563758,36.1686712 6.58208054,38.8678767 L6.58208054,26.0801918 L0.450671141,26.0801918 L0.450671141,51.9409452 L6.58208054,51.9409452 L6.58208054,46.2560137 C8.29348993,49.6669726 11.2873154,51.5145753 15.1368456,51.6566986 C19.2716107,51.3724521 21.8375839,49.5248493 23.5501342,45.8307808 L23.5501342,51.9409452 L29.3951678,51.9409452 L29.3951678,40.8576027 C29.6804027,38.4415068 33.3873154,38.3005205 33.5299329,40.8576027 L33.5299329,51.9409452 L39.5187248,51.9409452 L39.5187248,46.1150274 C40.8022819,49.0984795 42.9415436,50.9460822 46.220604,51.7976849 C53.2077181,52.5094384 55.9163087,47.6783836 55.9163087,46.399274 L50.9258389,45.6886575 C48.3587248,47.5362603 45.5075168,46.5413973 44.5103356,43.9843151 L56.7720134,43.9843151 L56.7720134,51.9409452 L62.9034228,51.9409452 L62.9034228,47.9626301 C63.900604,51.9409452 68.8910738,53.3610411 71.7434228,50.377589 C71.7434228,51.2303288 71.7434228,52.2240548 71.4581879,53.0767945 C70.4598658,55.3507671 67.4660403,55.3507671 65.8972483,53.787411 L62.332953,58.4763425 C64.6136913,60.3239452 66.8955705,61.1766849 69.889396,60.8924384 C72.3127517,60.6081918 73.8826846,60.1818219 75.7367114,58.4763425 C77.161745,56.9129863 77.8736913,55.3507671 77.8736913,53.2189178 Z M14.8516107,38.5836301 C16.9908725,38.5836301 18.7022819,40.2891096 18.7022819,42.4198219 C18.7022819,44.5516712 16.9908725,46.399274 14.8516107,46.399274 C12.7134899,46.399274 11.0020805,44.5516712 11.0020805,42.4198219 C11.0020805,40.2891096 12.7134899,38.5836301 14.8516107,38.5836301 Z" id="Fill-2"></path>
                <path d="M147.028322,41.4260959 L154.442148,41.4260959 C153.301208,37.5899041 148.025503,37.7320274 147.028322,41.4260959 Z M168.841946,44.9780411 L169.127181,44.6937945 L169.27094,49.8090959 C169.412416,51.0882055 164.708322,52.9358082 161.998591,50.9460822 C159.432617,49.0984795 159.432617,46.9677671 159.432617,43.9843151 L147.028322,43.9843151 C148.453356,47.5362603 152.588121,47.1087534 153.72906,45.404411 L158.862148,46.2560137 C157.008121,52.0830685 151.875034,52.9358082 147.169799,51.2303288 C144.603826,50.0933425 143.177651,48.6721096 142.036711,46.1150274 L142.036711,51.9409452 L136.04906,51.9409452 C136.04906,48.387863 136.04906,44.4095479 136.04906,40.7143425 C135.906443,38.3005205 132.055772,38.4415068 132.055772,40.8576027 L132.055772,51.9409452 L126.06698,52.0830685 L122.074832,52.0830685 L121.932215,48.5299863 C121.932215,47.1087534 120.364564,52.2240548 118.510537,52.0830685 C114.233154,52.3661781 110.954094,50.2354658 109.242685,46.5413973 L109.242685,51.9409452 L103.111275,51.9409452 L103.111275,46.5413973 C101.258389,50.0933425 96.6946309,52.3661781 92.1320134,51.2303288 L91.4189262,50.9460822 C91.4189262,50.9460822 91.5626846,57.1983699 91.5626846,58.9027123 L85.5738926,58.9027123 L85.5738926,42.7040685 C85.7165101,35.1738082 93.9848993,30.627 100.11745,35.1738082 C101.542483,36.3096575 102.25557,37.3045205 103.111275,38.8678767 L103.111275,26.0801918 L109.242685,26.0801918 L109.242685,38.8678767 C111.09557,34.7474384 114.946242,32.8998356 119.508859,33.611589 C122.787919,34.4631918 124.784564,36.1686712 126.06698,39.2942466 C127.778389,34.3222055 132.483624,32.3313425 137.474094,34.0368219 C139.89745,35.1738082 141.182148,36.7371644 142.036711,39.2942466 C144.31745,34.3222055 149.166443,32.3313425 154.156913,34.0368219 C156.722886,35.1738082 158.291678,36.7371644 159.432617,39.2942466 L159.432617,29.7742603 L165.277651,29.7742603 L165.277651,33.4683288 L168.985705,33.4683288 L168.985705,39.01 L165.277651,39.01 C165.277651,40.8576027 164.993557,42.7040685 165.564027,44.4095479 C166.133356,45.5465342 167.702148,45.8307808 168.841946,44.9780411 Z M117.512215,38.7268904 C119.651477,38.7268904 121.362886,40.4300959 121.362886,42.5630822 C121.362886,44.6937945 119.651477,46.399274 117.512215,46.399274 C115.374094,46.399274 113.662685,44.6937945 113.662685,42.5630822 C113.662685,40.4300959 115.374094,38.7268904 117.512215,38.7268904 Z M94.9843624,38.7268904 C97.1224832,38.7268904 98.8338926,40.4300959 98.8338926,42.5630822 C98.8338926,44.6937945 97.1224832,46.399274 94.9843624,46.399274 C92.8451007,46.399274 91.1348322,44.6937945 91.1348322,42.5630822 C91.1348322,40.4300959 92.8451007,38.7268904 94.9843624,38.7268904 Z" id="Fill-3"></path>
                <path d="M44.2239597,28.4951507 C49.7837584,12.2976438 65.1841611,0.645808219 83.149396,0.645808219 C101.258389,0.645808219 116.513893,12.1555205 122.074832,28.4951507 L119.937852,29.2057671 L117.796309,29.9163836 C112.80698,15.5653425 99.261745,5.33473973 83.149396,5.33473973 C67.1808054,5.33473973 53.492953,15.7074658 48.3587248,30.0585068 L44.2239597,28.4951507" id="Fill-4"></path>
                <path d="M122.074832,55.3507671 C116.513893,71.2651644 101.115772,82.6316164 83.149396,82.6316164 C65.0415436,82.6316164 49.7837584,71.4061507 44.2239597,55.3507671 L46.3632215,54.6401507 L48.3587248,53.9306712 C53.492953,67.9963288 67.0381879,77.9426849 83.149396,77.9426849 C99.1191275,77.9426849 112.80698,67.8553425 117.940067,53.787411 L122.074832,55.3507671" id="Fill-5"></path>
            </g>
        </g>
    </g>
</svg>