<?xml version="1.0" encoding="UTF-8"?>
<svg width="161px" height="67px" viewBox="0 0 161 67" version="1.1" xmlns="http://www.w3.org/2000/svg" xmlns:xlink="http://www.w3.org/1999/xlink">
    <!-- Generator: Sketch 49.3 (51167) - http://www.bohemiancoding.com/sketch -->
    <title>disney</title>
    <desc>Created with Sketch.</desc>
    <defs></defs>
    <g id="📖-About-page" stroke="none" stroke-width="1" fill="none" fill-rule="evenodd">
        <g id="About-Page---SG-Riff" transform="translate(-770.000000, -1294.000000)" fill="#000000" fill-rule="nonzero">
            <g id="disney" transform="translate(770.000000, 1294.000000)">
                <path d="M81.3169894,7.73977215 C82.406858,7.79024517 83.4478601,8.20249966 84.272367,8.9101519 C85.3959415,9.96349367 85.6905372,11.7199114 85.1587234,13.1252152 C83.0914149,17.3394304 78.1749202,20.1542785 74.8153298,21.0854937 C72.8053989,21.5536456 70.2645106,21.5536456 68.4318511,20.8514177 C67.5446383,21.3780886 66.7961596,23.0802278 65.7128351,22.3729114 C64.1447979,21.1601266 65.5021649,19.2620759 64.5969681,17.9152911 C64.4102766,17.637962 63.9401223,17.6176076 63.7037606,17.1638734 C62.4620053,14.4711519 63.9992128,11.8954684 65.7128351,9.8473038 C68.5697287,6.69067089 76.7661702,3.17359494 81.3169894,7.73977215 Z M71.8008617,9.8464557 C70.2045638,10.1390506 68.4018777,10.8268608 67.4273138,11.9539873 C66.4518936,13.0802658 65.8318723,14.178557 66.4227766,15.3489367 C68.4917979,13.827443 69.4963351,11.7199114 71.8017181,10.4324937 C71.8008617,10.1975696 72.1554043,10.0220127 71.8008617,9.8464557 Z M81.4360266,10.4324937 C77.3570745,10.0805316 74.283516,13.1252152 71.3872287,16.0511646 C71.2099574,16.5193165 70.1463298,17.0459873 70.9735957,17.5726582 C74.8752766,17.9237722 78.5988298,16.8127595 81.4360266,14.2362278 C82.2641489,13.475481 82.8533404,12.4806582 82.4414202,11.4264684 C82.2641489,11.0176835 81.8470904,10.6080506 81.4360266,10.4324937 Z M116.779809,27.8753924 C118.671559,32.4415696 120.267,39.6402532 116.779809,44.0308734 C115.834362,45.0842152 114.17983,46.0552911 113.116202,45.2597722 C109.214521,42.1582658 107.560846,37.7091266 105.137282,33.7281392 C104.782739,33.5525823 104.782739,34.0215823 104.605468,34.1971392 C103.719112,38.2357975 105.373644,43.5042025 102.596394,46.6642278 C101.532766,46.8397848 100.537649,46.2978481 100.17283,45.2597722 C98.8128936,41.1040759 100.230207,36.7719747 100.58475,32.6162785 C101.412872,30.5087468 101.767415,28.0509494 103.600074,26.4700886 C106.555452,27.6404684 107.973622,30.9192278 109.686388,33.3193544 C110.929,35.133443 111.932681,37.1824557 113.350851,38.8209873 C114.59175,38.2943165 113.981149,36.6880127 113.942612,35.7186329 C113.468176,31.9140506 112.404548,28.4020633 111.399154,24.773038 C111.341777,23.8367342 110.809963,22.2558734 111.812787,21.6706835 C114.476138,22.8419114 115.597144,25.5923038 116.779809,27.8753924 Z M98.9302181,26.4700886 C98.9302181,27.3487215 98.221133,28.4461646 97.628516,28.5776203 C91.9549787,29.4554051 85.6305904,28.9287342 80.3115957,30.6843038 C80.1343245,31.3280127 80.9025,31.4450506 81.316133,31.6206076 C85.8660957,32.3228354 90.6549894,32.4983924 95.088484,33.6111013 C97.4324043,34.2005316 98.2810798,36.9483797 98.4583511,39.2306203 C98.5671117,41.0302911 97.8683032,43.2107595 96.0938777,44.4405063 C91.7211862,47.1917468 85.0422553,47.0738608 80.6079043,44.5583924 C78.9131223,43.617 77.297984,42.1005949 77.1798032,40.2271392 C77.1900798,38.7395696 77.8306543,37.5683418 78.8942819,37.0077468 C83.1505053,35.3098481 88.4104096,36.2478481 92.0757287,38.4122025 C92.3103777,39.5834304 91.0309415,39.5198228 90.4186277,39.9345443 C86.3396755,42.2761519 83.2669734,37.302038 79.4843298,39.1144304 C78.952516,39.4655443 78.568,40.4451013 79.1888777,40.7538101 C83.8578777,42.8028228 89.0595479,41.339 93.6694574,40.0515823 C94.2012713,39.8760253 94.8521223,39.3493544 94.9103564,38.8226835 C94.7330851,36.9492278 92.6058298,36.540443 91.2458936,36.0137722 C87.2268883,35.0189494 82.79425,35.0189494 78.4789362,34.6093165 C77.6516702,34.4337595 76.5974628,33.8629873 76.3516809,33.2048608 C75.8789574,31.8004051 75.8789574,29.8684304 76.9425851,28.6980506 C82.4388511,23.8977975 90.7723138,24.3082785 97.7466968,25.5956962 C98.2202766,25.7678608 98.7520904,25.9434177 98.9302181,26.4700886 Z M73.1017074,28.6946582 C73.6335213,34.3133291 73.9289734,39.5240633 73.8107926,45.4353291 C73.6926117,46.1952278 72.8062553,46.3716329 72.2153511,46.6642278 C71.2699043,46.8397848 70.0478457,46.640481 69.6736064,46.137557 C68.3145266,43.9706582 68.78725,41.045557 68.6690691,38.4113544 C68.8463404,34.2565063 68.78725,29.7488481 69.9699149,25.8848987 C70.196,25.3234557 70.8562713,24.831557 71.3880851,25.1818228 C72.8062553,25.8848987 73.042617,27.2902025 73.1017074,28.6946582 Z M138.769154,27.8753924 C139.053473,28.3486329 139.350638,29.0796962 138.769154,29.3968861 C136.109229,30.5672658 132.504713,30.0405949 129.430298,30.3917089 C128.603032,31.0939367 127.952181,32.2643165 128.246777,33.3185063 C128.543941,33.4940633 128.808564,33.7612152 129.134846,33.7272911 C131.024883,33.8451772 133.862936,32.8495063 135.105548,34.6050759 C135.408707,35.1275063 135.064441,37.0781392 134.219191,37.1222405 C131.912952,37.4165316 128.120888,36.8355823 127.006734,37.4165316 C125.588564,38.3528354 125.705888,40.1669241 125.174074,41.6315949 C126.179468,42.2753038 127.231963,41.6163291 128.424048,41.4551899 C130.612963,41.1040759 133.036527,40.4603671 135.222016,40.928519 C135.635649,41.6892658 136.22741,42.5093797 135.81292,43.4456835 C132.086798,46.372481 127.280777,49.3722152 122.160463,47.2502658 C120.238739,46.3970759 119.382356,43.5042025 120.033207,41.0472532 C120.445984,39.2908354 122.277787,37.5937848 121.155926,35.7203291 C120.978654,34.9002152 121.452234,34.1988354 122.161319,34.0232785 C124.111303,34.0232785 123.696814,31.6231519 124.702207,30.510443 C123.579489,29.2815443 120.743149,29.3400633 121.038601,26.8814177 C122.398537,26.1791899 124.053926,26.4132658 125.588564,26.1791899 C129.075755,25.4761139 132.97658,25.066481 136.525431,25.4761139 C137.231947,25.6168987 138.17825,26.9976076 138.769154,27.8753924 Z M54.3649043,14.5296709 C59.8192074,18.9448861 66.8955,26.4709367 66.0091436,35.133443 C64.9446596,41.9827089 57.615734,47.1332278 51.4095266,48.7726076 C45.3805904,50.5281772 37.8153032,50.3526203 31.6673298,48.9481646 C31.2536968,50.0608734 30.8400638,51.405962 29.5400745,51.874962 C28.7128085,52.167557 27.6483245,51.992 26.9983298,51.4653291 C25.1665266,49.7674304 26.6437872,46.489519 23.9838617,45.4370253 C18.7821915,43.2709747 13.1668883,38.9973924 10.5078191,33.7298354 C10.1532766,32.6764937 10.5669096,31.6231519 11.2169043,30.8038861 C15.2958564,27.5844937 20.4375798,26.2970759 25.5801596,25.3014051 C25.8756117,25.418443 25.7574309,25.0088101 25.9937926,24.8917722 C26.2892447,21.3797848 26.4074255,17.8084304 27.5301436,14.647557 C27.7862021,14.204 28.4165,14.0623671 28.8309894,14.354962 C32.0818191,16.8127595 30.5446117,21.4383038 31.9636383,24.7738861 C38.1698457,25.066481 44.3760532,25.3590759 49.2814149,28.8133924 C50.9368032,30.1593291 51.3401596,32.7299241 50.817766,34.1988354 C50.2962287,35.6652025 48.5723298,36.716 46.9760319,36.8313418 C45.9115479,36.8313418 43.9024734,36.933962 44.0206543,36.129962 C44.1388351,35.3251139 47.6363032,34.0080127 46.5623989,32.9097215 C45.0183404,31.3314051 37.2929096,30.392557 32.5048723,29.8073671 C31.9139681,29.6903291 31.3718777,29.8658861 31.3718777,30.5095949 C31.2536968,34.9578861 30.8991543,39.8743291 31.6673298,44.1487595 C31.7264202,44.4422025 32.0809628,44.7933165 32.3772713,44.8501392 C40.8289149,46.1969241 49.7541383,45.4353291 56.3739787,40.6359241 C59.4475372,38.1789747 60.4529309,34.722962 59.9202606,30.9192278 C57.2603351,20.3247468 46.0896755,13.9436329 36.9280904,9.8464557 C28.0037234,5.98335443 18.1321968,3.99286076 7.55244149,4.52037975 C5.86793617,4.64250633 3.19859043,5.21836709 3.17889362,5.80864557 C3.15919681,6.39892405 6.20278191,6.21318987 5.83796277,7.33013924 C5.474,8.44624051 2.38074468,7.78387342 1.46441489,7.5056962 C0.548085106,7.22751899 0.637148936,5.92483544 0.873510638,5.10556962 C3.17889362,1.06691139 9.61204255,0.740392405 12.51775,0.598759494 C28.5937713,0.188278481 44.1396915,6.25135443 54.3649043,14.5296709 Z M25.4028883,30.217 C21.3239362,30.275519 17.0094787,30.6851519 13.2268351,32.0896076 C12.4586596,32.3822025 11.5123564,33.2014684 12.1032606,34.1971392 C13.6396117,36.2453038 15.8370904,37.9270886 17.8958351,39.1135823 C19.9545798,40.2983797 22.6838723,41.8063038 25.1665266,42.1582658 C25.7574309,38.3528354 25.7574309,34.6067722 25.6983404,30.6851519 C25.4611223,30.5681139 25.697484,30.334038 25.4028883,30.217 Z M147.574484,24.8900759 C147.397213,29.9820759 142.608319,33.1437975 142.608319,38.2357975 C142.78559,38.4113544 142.905484,38.6454304 143.140133,38.5300886 C146.98358,34.3735443 150.765367,28.4614304 156.38067,26.7058608 C157.8605,26.5888228 159.197314,27.8618228 159.750537,28.8133924 C161.701378,32.6764937 161.230367,38.1204557 158.510495,41.632443 C155.704128,45.0799747 150.825314,48.5393797 145.27167,47.9533418 C142.967144,53.5728608 141.368277,59.4849747 140.48192,65.6311646 C140.009197,66.8600633 138.887335,65.7482025 138.17825,65.5141266 C133.391069,61.7680633 137.321867,51.8512152 137.646436,50.5858481 C137.971005,49.3238734 139.252154,46.347038 140.189037,43.8544684 C137.942745,39.8751772 139.360915,35.0740759 141.192718,31.3865316 C142.610888,28.9278861 144.563441,26.4692405 146.867968,24.5966329 C147.160851,24.597481 147.397213,24.656 147.574484,24.8900759 Z M157.092324,31.2118228 C156.383239,31.0947848 156.086931,32.0319367 155.496883,32.2074937 C152.778723,35.2513291 150.058851,38.2951646 148.698915,41.9241899 C150.532431,42.1582658 152.067926,40.9878861 153.66508,40.3441772 C156.383239,38.6462785 158.097718,35.8382152 157.920447,32.6179747 C157.80141,32.0896076 157.328686,31.6799747 157.092324,31.2118228 Z" id="Shape"></path>
            </g>
        </g>
    </g>
</svg>