<?xml version="1.0" encoding="UTF-8"?>
<svg width="147px" height="42px" viewBox="0 0 147 42" version="1.1" xmlns="http://www.w3.org/2000/svg" xmlns:xlink="http://www.w3.org/1999/xlink">
    <!-- Generator: Sketch 49.3 (51167) - http://www.bohemiancoding.com/sketch -->
    <title>slack</title>
    <desc>Created with Sketch.</desc>
    <defs></defs>
    <g id="📖-About-page" stroke="none" stroke-width="1" fill="none" fill-rule="evenodd">
        <g id="About-Page---SG-Riff" transform="translate(-200.000000, -1307.000000)" fill-rule="nonzero">
            <g id="slack" transform="translate(200.000000, 1307.000000)">
                <g id="Group" transform="translate(0.000000, 1.322835)">
                    <path d="M26.6604545,2.67874016 C26.0256818,0.793700787 23.9877273,-0.231496063 22.0834091,0.363779528 C20.1790909,0.992125984 19.1434091,3.00944882 19.7447727,4.89448819 L29.1327273,33.4677165 C29.7675,35.2204724 31.7052273,36.2125984 33.5427273,35.6834646 C35.4804545,35.1212598 36.6497727,33.103937 36.015,31.2519685 C36.015,31.1858268 26.6604545,2.67874016 26.6604545,2.67874016 Z" id="Shape" fill="#ECB32D"></path>
                    <path d="M12.1275,7.34173228 C11.4927273,5.45669291 9.45477273,4.43149606 7.55045455,5.02677165 C5.64613636,5.65511811 4.61045455,7.67244094 5.21181818,9.55748031 L14.5997727,38.1307087 C15.2345455,39.8834646 17.1722727,40.8755906 19.0097727,40.3464567 C20.9475,39.784252 22.1168182,37.7669291 21.4820455,35.9149606 C21.4820455,35.8488189 12.1275,7.34173228 12.1275,7.34173228 Z" id="Shape" fill="#63C1A0"></path>
                    <path d="M38.4872727,26.3244094 C40.3915909,25.696063 41.4272727,23.6787402 40.8259091,21.7937008 C40.1911364,19.9086614 38.1531818,18.8834646 36.2488636,19.4787402 L7.35,28.8047244 C5.57931818,29.4330709 4.57704545,31.3511811 5.11159091,33.1700787 C5.67954545,35.088189 7.7175,36.2456693 9.58840909,35.6173228 C9.65522727,35.6173228 38.4872727,26.3244094 38.4872727,26.3244094 Z" id="Shape" fill="#E01A59"></path>
                    <path d="M13.3636364,34.4267717 C15.2345455,33.8314961 17.6734091,33.0377953 20.2793182,32.2110236 C19.6779545,30.3590551 18.8761364,27.9448819 18.0409091,25.3653543 L11.1252273,27.5811024 L13.3636364,34.4267717 Z" id="Shape" fill="#331433"></path>
                    <path d="M27.93,29.7307087 C30.5359091,28.903937 32.9747727,28.1102362 34.8456818,27.5149606 C34.2443182,25.6629921 33.4425,23.2488189 32.6072727,20.6692913 L25.6915909,22.8850394 L27.93,29.7307087 Z" id="Shape" fill="#D62027"></path>
                    <path d="M33.7431818,11.9385827 C35.6475,11.3102362 36.6831818,9.29291339 36.0818182,7.40787402 C35.4470455,5.52283465 33.4090909,4.4976378 31.5047727,5.09291339 L2.63931818,14.3858268 C0.868636364,15.0141732 -0.133636364,16.9322835 0.400909091,18.7511811 C0.968863636,20.6692913 3.00681818,21.8267717 4.87772727,21.1984252 C4.94454545,21.1984252 33.7431818,11.9385827 33.7431818,11.9385827 Z" id="Shape" fill="#89D3DF"></path>
                    <path d="M8.65295455,20.007874 C10.5238636,19.4125984 12.9627273,18.6188976 15.5686364,17.792126 C14.7334091,15.2125984 13.9315909,12.7984252 13.3302273,10.9464567 L6.41454545,13.1622047 L8.65295455,20.007874 Z" id="Shape" fill="#258B74"></path>
                    <path d="M23.1859091,15.3448819 C25.7918182,14.5181102 28.2306818,13.7244094 30.1015909,13.1291339 C29.2663636,10.5496063 28.4645455,8.13543307 27.8631818,6.28346457 L20.9475,8.4992126 L23.1859091,15.3448819 Z" id="Shape" fill="#819C3C"></path>
                </g>
                <path d="M67.7536364,11.5086614 C69.0231818,12.0708661 69.1234091,12.4677165 68.1211364,14.3527559 C67.0854545,16.2708661 66.8515909,16.4031496 65.5820455,15.9070866 C64.0118182,15.2456693 61.9738636,14.7496063 60.6709091,14.7496063 C58.5327273,14.7496063 57.1295455,15.5102362 57.1295455,16.6677165 C57.1295455,20.4708661 69.3572727,18.4204724 69.3572727,26.4897638 C69.3572727,30.5574803 65.8159091,33.2692913 60.5372727,33.2692913 C57.7643182,33.2692913 54.3231818,32.3433071 51.9511364,31.1527559 C50.7818182,30.5574803 50.6815909,30.2267717 51.7172727,28.2755906 C52.5859091,26.5889764 52.8865909,26.3905512 54.1561364,26.919685 C56.1606818,27.7795276 58.7331818,28.4740157 60.4370455,28.4740157 C62.3747727,28.4740157 63.6777273,27.680315 63.6777273,26.5559055 C63.6777273,22.8850394 51.2161364,24.6377953 51.2161364,16.8 C51.2161364,12.6330709 54.7240909,9.85511811 59.9693182,9.85511811 C62.5084091,9.82204724 65.6154545,10.5496063 67.7536364,11.5086614 Z" id="Shape" fill="#2D333A"></path>
                <path d="M77.6427273,1.91811024 L77.6427273,32.0787402 C77.6427273,32.5417323 77.1415909,33.0047244 76.4734091,33.0047244 L73.2661364,33.0047244 C72.5645455,33.0047244 72.0968182,32.5086614 72.0968182,32.0787402 L72.0968182,1.91811024 C72.0968182,0.42992126 72.5311364,0.297637795 74.8697727,0.297637795 C77.5425,0.264566929 77.6427273,0.462992126 77.6427273,1.91811024 Z" id="Shape" fill="#2D333A"></path>
                <path d="M100.427727,18.8503937 L100.427727,31.8472441 C100.427727,32.5417323 99.9265909,33.0047244 99.2584091,33.0047244 L96.0845455,33.0047244 C95.3495455,33.0047244 94.8484091,32.4755906 94.9152273,31.7480315 L94.9486364,30.3590551 C93.2447727,32.2440945 90.7725,33.2362205 88.3002273,33.2362205 C83.5227273,33.2362205 80.3154545,30.4913386 80.3154545,26.423622 C80.3154545,22.0913386 83.9236364,19.1480315 89.3693182,19.1480315 C91.4406818,19.1480315 93.3115909,19.511811 94.8484091,20.1401575 L94.8484091,18.6519685 C94.8484091,16.2708661 92.9440909,14.8488189 89.7034091,14.8488189 C88.2,14.8488189 86.3290909,15.4440945 84.8590909,16.303937 C83.7231818,16.9322835 83.4559091,16.8992126 82.2197727,15.080315 C81.0170455,13.2614173 81.0504545,12.9307087 82.2197727,12.1700787 C84.4581818,10.7480315 87.465,9.82204724 90.2379545,9.82204724 C96.4854545,9.82204724 100.427727,13.1622047 100.427727,18.8503937 Z M85.6609091,26.3905512 C85.6609091,27.9448819 86.9972727,28.9700787 88.9684091,28.9700787 C91.3738636,28.9700787 93.5788636,27.8125984 94.8484091,25.8614173 L94.8484091,23.8440945 C93.5788636,23.3480315 92.0086364,23.0834646 90.6388636,23.0834646 C87.6320455,23.0834646 85.6609091,24.4724409 85.6609091,26.3905512 Z" id="Shape" fill="#2D333A"></path>
                <path d="M122.143636,11.5417323 C123.312955,12.2031496 123.346364,12.5669291 122.076818,14.5181102 C120.874091,16.3700787 120.673636,16.4692913 119.370682,15.8409449 C118.401818,15.3448819 116.831591,14.9149606 115.562045,14.9149606 C111.552955,14.9149606 108.880227,17.5275591 108.880227,21.496063 C108.880227,25.5968504 111.552955,28.3748031 115.562045,28.3748031 C116.965227,28.3748031 118.7025,27.8456693 119.838409,27.2173228 C121.007727,26.5559055 121.241591,26.5889764 122.477727,28.3748031 C123.580227,30.0283465 123.580227,30.4251969 122.577955,31.119685 C120.773864,32.3433071 117.9675,33.2692913 115.461818,33.2692913 C108.045,33.2692913 103.067045,28.5732283 103.067045,21.496063 C103.067045,14.4850394 108.045,9.82204724 115.528636,9.82204724 C117.800455,9.82204724 120.473182,10.5826772 122.143636,11.5417323 Z" id="Shape" fill="#2D333A"></path>
                <path d="M146.398636,30.1606299 C147.334091,31.3181102 146.966591,31.7480315 144.627955,32.5748031 C142.255909,33.4346457 141.921818,33.3685039 141.086591,32.3102362 L134.438182,23.5464567 L131.464773,26.3905512 L131.464773,32.0787402 C131.464773,32.5417323 130.963636,33.0047244 130.295455,33.0047244 L127.088182,33.0047244 C126.386591,33.0047244 125.918864,32.5086614 125.918864,32.0787402 L125.918864,1.91811024 C125.918864,0.42992126 126.353182,0.297637795 128.691818,0.297637795 C131.397955,0.297637795 131.464773,0.496062992 131.464773,1.91811024 L131.464773,19.0488189 L140.552045,10.4173228 C141.554318,9.49133858 142.122273,9.55748031 143.892955,10.7149606 C145.864091,11.9716535 145.997727,12.3354331 145.062273,13.2283465 L138.313636,19.776378 L146.398636,30.1606299 Z" id="Shape" fill="#2D333A"></path>
            </g>
        </g>
    </g>
</svg>