<?xml version="1.0" encoding="UTF-8"?>
<svg width="66px" height="81px" viewBox="0 0 66 81" version="1.1" xmlns="http://www.w3.org/2000/svg" xmlns:xlink="http://www.w3.org/1999/xlink">
    <!-- Generator: Sketch 49.3 (51167) - http://www.bohemiancoding.com/sketch -->
    <title>apple</title>
    <desc>Created with Sketch.</desc>
    <defs></defs>
    <g id="📖-About-page" stroke="none" stroke-width="1" fill="none" fill-rule="evenodd">
        <g id="About-Page---SG-Riff" transform="translate(-536.000000, -1287.000000)" fill="#000000" fill-rule="nonzero">
            <g id="apple" transform="translate(536.000000, 1287.000000)">
                <path d="M55.0015405,42.9587326 C55.1151991,55.1956524 65.7390328,59.2677433 65.8567352,59.3195775 C65.7669059,59.606615 64.159221,65.1225561 60.2595886,70.8201337 C56.8883895,75.7461176 53.3898118,80.6537647 47.8783063,80.7554118 C42.4626958,80.8551818 40.7212779,77.5448663 34.529698,77.5448663 C28.3399956,77.5448663 26.4051991,80.6539091 21.2787177,80.8553262 C15.9587133,81.0567433 11.9074398,75.5288182 8.50851204,70.6208824 C1.56291466,60.5817914 -3.74495842,42.2528342 3.38217505,29.8804813 C6.92277899,23.7363209 13.2501138,19.8455775 20.1178687,19.7458075 C25.3419781,19.6461818 30.2727702,23.2595615 33.466477,23.2595615 C36.6581619,23.2595615 42.6501532,18.9141497 48.9494705,19.5523316 C51.5865821,19.6620642 58.9891247,20.6173155 63.7422801,27.5732086 C63.3592779,27.8105775 54.9096893,32.7283316 55.0015405,42.9587326 M44.8235317,12.9106203 C47.6479562,9.49259358 49.5489584,4.73438503 49.0303457,0 C44.9591422,0.163588235 40.0361488,2.71227273 37.1159737,6.12842246 C34.4989365,9.15357754 32.2069891,13.9955294 32.8253961,18.6362086 C37.363221,18.9872086 41.9989628,16.3308128 44.8235317,12.9106203" id="Shape"></path>
            </g>
        </g>
    </g>
</svg>