<?xml version="1.0" encoding="UTF-8"?>
<svg width="141px" height="29px" viewBox="0 0 141 29" version="1.1" xmlns="http://www.w3.org/2000/svg" xmlns:xlink="http://www.w3.org/1999/xlink">
    <!-- Generator: Sketch 49.3 (51167) - http://www.bohemiancoding.com/sketch -->
    <title>uber</title>
    <desc>Created with Sketch.</desc>
    <defs></defs>
    <g id="📖-About-page" stroke="none" stroke-width="1" fill="none" fill-rule="evenodd">
        <g id="About-Page---SG-Riff" transform="translate(-1087.000000, -1157.000000)" fill="#000000" fill-rule="nonzero">
            <g id="uber" transform="translate(1087.000000, 1157.000000)">
                <path d="M22.8859146,0 L28.3078394,0 L28.3078394,16.9511202 C28.3078394,25.8696538 22.52645,29 14.138942,29 C5.78138942,29 0,25.8696538 0,16.9511202 L0,0.679226069 C0,0.206720978 0.239643085,0 0.718929254,0 L6.14085405,0 L6.14085405,16.685336 C6.14085405,22.0305499 8.53728489,24.2454175 14.138942,24.2454175 C19.7705545,24.2454175 22.1669853,22.0305499 22.1669853,16.685336 L22.1669853,0.679226069 C22.1669853,0.206720978 22.4066284,0 22.8859146,0 Z M84.2644997,4.63645621 L84.2644997,11.7830957 L97.9840663,11.7830957 C98.2237094,11.7830957 98.3135755,11.901222 98.2237094,12.1374745 L96.7259401,15.799389 C96.5761632,16.1242363 96.3664755,16.2718941 95.9171447,16.2718941 L87.859146,16.2718941 C85.223072,16.2718941 84.2644997,17.0692464 84.2644997,18.811609 L84.2644997,23.8615071 L102.836839,23.8615071 C103.076482,23.8615071 103.166348,23.9796334 103.076482,24.2158859 L101.518802,28.0254582 C101.369025,28.3503055 101.159337,28.4979633 100.710006,28.4979633 L80.3702996,28.4979633 C78.8126195,28.4979633 78.2135118,27.9663951 78.2135118,26.814664 L78.2135118,1.97861507 C78.2135118,0.590631365 78.9923518,0 81.029318,0 L102.836839,0 C103.076482,0 103.166348,0.118126273 103.076482,0.324847251 L101.518802,4.16395112 C101.369025,4.48879837 101.159337,4.63645621 100.710006,4.63645621 L84.2644997,4.63645621 Z M67.040153,20.6130346 C67.040153,26.3126273 62.9662205,28.4979633 57.2447419,28.4979633 L42.0873168,28.4979633 C40.4996813,28.4979633 39.930529,27.9663951 39.930529,26.814664 L39.930529,1.97861507 C39.930529,0.590631365 40.6794136,0 42.7463352,0 L55.0579987,0 C60.4499681,0 65.6622052,0.915478615 65.6622052,7.23523422 C65.6622052,9.95213849 64.6736775,12.2556008 62.307202,13.4663951 C65.5723391,14.3228106 67.040153,17.2169043 67.040153,20.6130346 Z M45.8916507,11.8716904 L55.5073295,11.8716904 C58.6826004,11.8716904 59.581262,10.6608961 59.581262,8.1802444 C59.581262,5.69959267 58.6826004,4.51832994 55.5073295,4.51832994 L45.8916507,4.51832994 L45.8916507,11.8716904 Z M60.9592097,20.0814664 C60.9592097,17.4531568 60.0305927,16.1537678 56.6156788,16.1537678 L49.5162524,16.1537678 C46.8801785,16.1537678 45.8916507,16.9511202 45.8916507,18.6934827 L45.8916507,23.9796334 L56.6156788,23.9796334 C60.0305927,23.9796334 60.9592097,22.6802444 60.9592097,20.0814664 Z M140.640535,28.4979633 L135.128744,28.4979633 C134.679414,28.4979633 134.499681,28.3207739 134.319949,28.0254582 L128.478649,17.6303462 L123.116635,17.6303462 C120.480561,17.6303462 119.492033,18.4276986 119.492033,20.1700611 L119.492033,28.4979633 L114.219885,28.4979633 C113.740599,28.4979633 113.500956,28.2617108 113.500956,27.8187373 L113.500956,1.97861507 C113.500956,0.590631365 114.279796,0 116.316762,0 L128.688337,0 C135.907584,0 140.251115,1.8604888 140.251115,8.77087576 C140.251115,14.1160896 137.644997,16.212831 134.409815,17.0397149 L140.910134,27.9959267 C141.029955,28.1731161 141.029955,28.4979633 140.640535,28.4979633 Z M134.170172,8.88900204 C134.170172,5.99490835 133.361377,4.57739308 129.586998,4.57739308 L119.492033,4.57739308 L119.492033,13.200611 L129.586998,13.200611 C133.361377,13.200611 134.170172,11.8126273 134.170172,8.88900204 Z" id="Shape"></path>
            </g>
        </g>
    </g>
</svg>