<?xml version="1.0" encoding="UTF-8"?>
<svg width="188px" height="56px" viewBox="0 0 188 56" version="1.1" xmlns="http://www.w3.org/2000/svg" xmlns:xlink="http://www.w3.org/1999/xlink">
    <!-- Generator: Sketch 49.3 (51167) - http://www.bohemiancoding.com/sketch -->
    <title>national-geographic</title>
    <desc>Created with Sketch.</desc>
    <defs></defs>
    <g id="📖-About-page" stroke="none" stroke-width="1" fill="none" fill-rule="evenodd">
        <g id="About-Page---SG-Riff" transform="translate(-1066.000000, -1300.000000)" fill-rule="nonzero">
            <g id="national-geographic" transform="translate(1066.000000, 1300.000000)">
                <path d="M0.535322034,0.592754717 L38.8108475,0.592754717 L38.8108475,55.149434 L0.535322034,55.149434 L0.535322034,0.592754717 Z M6.05211299,49.6572075 L33.2749379,49.6572075 L33.2749379,6.08709434 L6.05211299,6.08709434 L6.05211299,49.6572075 Z" id="Shape" fill="#F7D730"></path>
                <path d="M64.2354576,25.0700377 L61.8679322,25.0700377 C58.7579661,20.6999245 55.6734915,16.357283 52.5932655,11.4493585 L52.5709605,11.4493585 L52.5709605,25.0700377 L49.9538305,25.0700377 L49.9538305,6.07864151 L52.3234802,6.07864151 C55.4334463,10.4181132 58.5136723,14.7301132 61.5652203,19.6126792 L61.6193898,19.6126792 L61.6193898,6.07864151 L64.2365198,6.07864151 L64.2365198,25.0700377 L64.2354576,25.0700377 Z M70.456452,17.5533585 C71.215887,15.0566038 71.9806328,12.7510943 72.6635932,9.82007547 L72.7188249,9.82007547 C73.4814463,12.7510943 74.1644068,15.0576604 74.8728588,17.5533585 L70.456452,17.5533585 Z M71.707661,6.07864151 L65.1117288,25.0700377 L67.947661,25.0700377 L69.6067345,19.8863396 L75.3646328,19.8863396 L76.863322,25.0700377 L80.5202938,25.0700377 L74.4363164,6.07864151 L71.707661,6.07864151 Z M83.5994576,25.0700377 L83.5994576,8.62611321 L78.5797514,8.62611321 L78.5797514,6.07864151 L91.8873898,6.07864151 L91.8873898,8.62611321 L86.8719322,8.62611321 L86.8719322,25.0700377 L83.5994576,25.0700377 Z M92.9484746,6.07864151 L96.1986441,6.07864151 L96.1986441,25.0700377 L92.9484746,25.0700377 L92.9484746,6.07864151 Z M106.28904,22.6789434 C102.876362,22.6789434 101.677198,18.9353962 101.677198,15.2996226 C101.677198,11.8012075 103.039932,8.46339623 106.28904,8.46339623 C109.533898,8.46339623 110.892384,11.8012075 110.892384,15.2996226 C110.892384,18.9353962 109.695345,22.6789434 106.28904,22.6789434 Z M106.28904,25.3912453 C111.277944,25.3912453 114.385785,20.9714717 114.385785,15.298566 C114.385785,9.98279245 110.955051,5.75109434 106.28904,5.75109434 C101.627277,5.75109434 98.1816723,9.98279245 98.1816723,15.298566 C98.1827345,20.9725283 101.295887,25.3912453 106.28904,25.3912453 Z M130.666373,25.0700377 L128.295661,25.0700377 C125.183571,20.6999245 122.10122,16.357283 119.023119,11.4493585 L118.996565,11.4493585 L118.996565,25.0700377 L116.382621,25.0700377 L116.382621,6.07864151 L118.753333,6.07864151 C121.859051,10.4181132 124.941401,14.7301132 127.990825,19.6126792 L128.047119,19.6126792 L128.047119,6.07864151 L130.667435,6.07864151 L130.667435,25.0700377 L130.666373,25.0700377 Z M136.884181,17.5533585 C137.649989,15.0566038 138.409424,12.7510943 139.095571,9.82007547 L139.14974,9.82007547 C139.913424,12.7510943 140.593198,15.0576604 141.300588,17.5533585 L136.884181,17.5533585 Z M138.141763,6.07864151 L131.542644,25.0700377 L134.380701,25.0700377 L136.039774,19.8863396 L141.79661,19.8863396 L143.296362,25.0700377 L146.949085,25.0700377 L140.866169,6.07864151 L138.141763,6.07864151 Z M147.899706,6.07864151 L151.150938,6.07864151 L151.150938,22.5183396 L157.610915,22.5183396 L157.610915,25.0700377 L147.899706,25.0700377 L147.899706,6.07864151 Z M62.2237514,40.9550189 L62.2237514,48.7929057 C60.4765198,49.4744151 58.648565,49.9593962 56.7993672,49.9593962 C51.179548,49.9593962 47.6351638,45.6188679 47.6351638,40.029434 C47.6351638,34.8457358 51.179548,30.3171321 56.9066441,30.3171321 C58.6761808,30.3171321 60.4499661,30.9711698 61.5418531,31.7836981 L60.4775819,34.0353208 C59.6066215,33.4975094 58.2396384,33.0357736 56.9873672,33.0357736 C53.4992768,33.0357736 51.1243164,35.7766038 51.1243164,40.090717 C51.1243164,44.5907925 53.8529718,47.2470943 56.6623503,47.2470943 C57.5311864,47.2470943 58.2715028,47.1435472 58.9565876,46.7874717 L58.9565876,40.9550189 L62.2237514,40.9550189 Z M73.9286102,33.1984906 L68.468113,33.1984906 L68.468113,38.4043774 L73.8128362,38.4043774 L73.8128362,40.9550189 L68.468113,40.9550189 L68.468113,47.0822642 L74.903661,47.0822642 L74.903661,49.6360755 L65.1935141,49.6360755 L65.1935141,30.6436226 L73.9286102,30.6436226 L73.9286102,33.1984906 Z M84.0179435,47.2460377 C80.6052655,47.2460377 79.4039774,43.5056604 79.4039774,39.8677736 C79.4039774,36.3714717 80.767774,33.034717 84.0179435,33.034717 C87.260678,33.034717 88.6212881,36.3714717 88.6212881,39.8677736 C88.6212881,43.5056604 87.4189379,47.2460377 84.0179435,47.2460377 Z M84.0179435,49.9593962 C89.0057853,49.9593962 92.112565,45.5375094 92.112565,39.866717 C92.112565,34.5509434 88.6786441,30.3160755 84.0179435,30.3160755 C79.3487458,30.3160755 75.9169492,34.5509434 75.9169492,39.866717 C75.915887,45.538566 79.0194802,49.9593962 84.0179435,49.9593962 Z M107.818531,40.9550189 L107.818531,48.7929057 C106.071299,49.4744151 104.248655,49.9593962 102.392023,49.9593962 C96.776452,49.9593962 93.2288814,45.6188679 93.2288814,40.029434 C93.2288814,34.8457358 96.776452,30.3171321 102.503548,30.3171321 C104.277333,30.3171321 106.04687,30.9711698 107.135571,31.7836981 L106.071299,34.0353208 C105.198215,33.4975094 103.842915,33.0357736 102.586395,33.0357736 C99.0908701,33.0357736 96.7180339,35.7766038 96.7180339,40.090717 C96.7180339,44.5907925 99.4477514,47.2470943 102.25713,47.2470943 C103.132339,47.2470943 103.86522,47.1435472 104.549243,46.7874717 L104.549243,40.9550189 L107.818531,40.9550189 Z M114.097944,33.1984906 L115.539277,33.1984906 C117.47026,33.1984906 118.564271,34.3058113 118.564271,36.2615849 C118.564271,38.8090566 117.012475,39.9470189 115.456429,40.0283774 C115.128226,40.0611321 114.36348,40.0886038 114.097944,40.1118491 L114.097944,33.1984906 Z M122.385876,49.6360755 L118.533469,41.7717736 C120.633333,40.6623396 121.839932,38.4043774 121.839932,36.125283 C121.839932,32.4324528 119.572249,30.6436226 115.917401,30.6436226 L110.818034,30.6436226 L110.818034,49.6360755 L114.097944,49.6360755 L114.097944,42.4744151 L115.569017,42.4744151 L118.644994,49.6360755 L122.385876,49.6360755 Z M127.783706,42.1204528 C128.545266,39.6205283 129.308949,37.3171321 129.992972,34.3871698 L130.047141,34.3871698 C130.810825,37.3171321 131.490599,39.6205283 132.200113,42.1204528 L127.783706,42.1204528 Z M129.035977,30.6436226 L122.434734,49.6360755 L125.270667,49.6360755 L126.936113,44.4523774 L132.692949,44.4523774 L134.184203,49.6360755 L137.845424,49.6360755 L131.760384,30.6436226 L129.035977,30.6436226 Z M143.979322,30.6436226 L138.879955,30.6436226 L138.879955,49.6360755 L142.153492,49.6360755 L142.153492,42.4744151 L143.622441,42.4744151 C147.524768,42.4744151 149.899729,39.3267925 149.899729,36.125283 C149.899729,32.4313962 147.634169,30.6436226 143.979322,30.6436226 Z M143.520475,40.029434 C143.180588,40.0600755 142.381853,40.085434 142.153492,40.1076226 L142.153492,33.1984906 L143.622441,33.1984906 C145.531119,33.1984906 146.626192,34.3058113 146.626192,36.2615849 C146.626192,38.8090566 145.07652,39.9480755 143.520475,40.029434 Z M165.059751,49.6360755 L161.788339,49.6360755 L161.788339,40.4964528 L154.992723,40.4964528 L154.992723,49.6360755 L151.756362,49.6360755 L151.756362,30.6436226 L154.992723,30.6436226 L154.992723,37.9415849 L161.788339,37.9415849 L161.788339,30.6975094 L165.059751,30.6975094 L165.059751,49.6360755 Z M168.193085,30.6436226 L171.445379,30.6436226 L171.445379,49.6360755 L168.193085,49.6360755 L168.193085,30.6436226 Z M186.165672,34.0913208 C185.373311,33.6021132 184.070056,33.034717 182.809288,33.034717 C179.477333,33.034717 177.058825,35.7755472 177.058825,40.0896604 C177.058825,44.5897358 179.729062,47.2460377 182.89426,47.2460377 C184.052813,47.2406094 185.186464,46.9110764 186.165672,46.2950943 L187.068497,48.6576604 C186.080701,49.3349434 184.340904,49.9593962 182.761492,49.9593962 C177.141672,49.9593962 173.594102,45.6188679 173.594102,40.029434 C173.594102,34.8457358 177.11087,30.3171321 182.809288,30.3171321 C184.504475,30.3171321 186.080701,31.0271698 187.205514,31.7836981 L186.165672,34.0913208 Z" id="Shape" fill="#000000"></path>
            </g>
        </g>
    </g>
</svg>