<?xml version="1.0" encoding="UTF-8"?>
<svg width="138px" height="45px" viewBox="0 0 138 45" version="1.1" xmlns="http://www.w3.org/2000/svg" xmlns:xlink="http://www.w3.org/1999/xlink">
    <!-- Generator: Sketch 49.3 (51167) - http://www.bohemiancoding.com/sketch -->
    <title>google</title>
    <desc>Created with Sketch.</desc>
    <defs></defs>
    <g id="📖-About-page" stroke="none" stroke-width="1" fill="none" fill-rule="evenodd">
        <g id="About-Page---SG-Riff" transform="translate(-501.000000, -1149.000000)" fill-rule="nonzero">
            <g id="google" transform="translate(501.000000, 1149.000000)">
                <path d="M58.7870036,23.2417582 C58.7870036,29.7900544 53.7541151,34.6153846 47.5776173,34.6153846 C41.4011195,34.6153846 36.368231,29.7900544 36.368231,23.2417582 C36.368231,16.6473112 41.4011195,11.8681319 47.5776173,11.8681319 C53.7541151,11.8681319 58.7870036,16.6473112 58.7870036,23.2417582 Z M53.8800633,23.2417582 C53.8800633,19.1497141 50.9631039,16.3498945 47.5776173,16.3498945 C44.1921308,16.3498945 41.2751714,19.1497141 41.2751714,23.2417582 C41.2751714,27.2927794 44.1921308,30.133622 47.5776173,30.133622 C50.9631039,30.133622 53.8800633,27.2876515 53.8800633,23.2417582 Z" id="Shape" fill="#EA4335"></path>
                <path d="M83.198556,23.2417582 C83.198556,29.7900544 78.1656675,34.6153846 71.9891697,34.6153846 C65.8126719,34.6153846 60.7797834,29.7900544 60.7797834,23.2417582 C60.7797834,16.6524391 65.8126719,11.8681319 71.9891697,11.8681319 C78.1656675,11.8681319 83.198556,16.6473112 83.198556,23.2417582 Z M78.2916156,23.2417582 C78.2916156,19.1497141 75.3746562,16.3498945 71.9891697,16.3498945 C68.6036831,16.3498945 65.6867237,19.1497141 65.6867237,23.2417582 C65.6867237,27.2927794 68.6036831,30.133622 71.9891697,30.133622 C75.3746562,30.133622 78.2916156,27.2876515 78.2916156,23.2417582 Z" id="Shape" fill="#FBBC05"></path>
                <path d="M107.111913,12.5593463 L107.111913,33.0997634 C107.111913,41.5490861 102.131839,45 96.244421,45 C90.7024123,45 87.3668964,41.2911703 86.1089893,38.2580801 L90.4807319,36.4371943 C91.2591908,38.2993466 93.1666729,40.4967895 96.2392656,40.4967895 C100.007832,40.4967895 102.343208,38.1703887 102.343208,33.7909778 L102.343208,32.1454748 L102.167926,32.1454748 C101.044058,33.533062 98.8788084,34.7452664 96.1464692,34.7452664 C90.4291784,34.7452664 85.1913357,29.7623325 85.1913357,23.3505448 C85.1913357,16.8923323 90.4291784,11.8681319 96.1464692,11.8681319 C98.873653,11.8681319 101.038903,13.0803363 102.167926,14.4266569 L102.343208,14.4266569 L102.343208,12.5645046 L107.111913,12.5645046 L107.111913,12.5593463 Z M102.698928,23.3505448 C102.698928,19.3218995 100.012987,16.3765007 96.5949852,16.3765007 C93.1305854,16.3765007 90.2281194,19.3218995 90.2281194,23.3505448 C90.2281194,27.3379236 93.1305854,30.2420559 96.5949852,30.2420559 C100.012987,30.2420559 102.698928,27.3379236 102.698928,23.3505448 Z" id="Shape" fill="#4285F4"></path>
                <polygon id="Shape" fill="#34A853" points="115.083032 1.48351648 115.083032 34.6153846 110.101083 34.6153846 110.101083 1.48351648"></polygon>
                <path d="M133.918479,26.9902347 L137.785183,29.5746837 C136.537199,31.4258465 133.529763,34.6153846 128.33324,34.6153846 C121.888733,34.6153846 117.075812,29.6208345 117.075812,23.2417582 C117.075812,16.4780913 121.929651,11.8681319 127.775739,11.8681319 C133.662745,11.8681319 136.542314,16.5652652 137.483417,19.1035633 L138,20.3957877 L122.834951,26.692818 C123.995985,28.9747223 125.80147,30.1387499 128.33324,30.1387499 C130.870125,30.1387499 132.629578,28.8875484 133.918479,26.9902347 Z M122.016601,22.8981906 L132.153912,18.6779496 C131.596411,17.2575283 129.918793,16.2678485 127.944524,16.2678485 C125.412753,16.2678485 121.888733,18.5087298 122.016601,22.8981906 Z" id="Shape" fill="#EA4335"></path>
                <path d="M17.8920357,20.8681606 L17.8920357,16.0716439 L34.1347053,16.0716439 C34.2934952,16.9075937 34.3754513,17.8964611 34.3754513,18.9668846 C34.3754513,22.5655464 33.3868561,27.0154497 30.2008137,30.1859421 C27.1018496,33.3972125 23.1423467,35.1098901 17.8971579,35.1098901 C8.17511849,35.1098901 0,27.2295344 0,17.5549451 C0,7.88035571 8.17511849,0 17.8971579,0 C23.2755253,0 27.1069719,2.10006892 29.985679,4.83729467 L26.5845019,8.22187177 C24.5202332,6.29510951 21.7234822,4.79651664 17.8920357,4.79651664 C10.7925906,4.79651664 5.24006655,10.4901501 5.24006655,17.5549451 C5.24006655,24.61974 10.7925906,30.3133735 17.8920357,30.3133735 C22.4969426,30.3133735 25.119537,28.4732645 26.7996366,26.801365 C28.1621563,25.4454953 29.0585509,23.5085385 29.4119865,20.8630633 L17.8920357,20.8681606 Z" id="Shape" fill="#4285F4"></path>
            </g>
        </g>
    </g>
</svg>